PathFileType	4	(X/Y/Z)	C:/Users/dbak576/Desktop/Duncan Bakke Modelling Files/H28s1/Static_H28s1.trc	
DataRate	CameraRate	NumFrames	NumMarkers	Units	OrigDataRate	OrigDataStartFrame	OrigNumFrames	
200.00	200.00	5	61	mm	200.00	325	187	
Frame#	Time	LFHD			RFHD			LBHD			RBHD			C7			T10			CLAV			STRN			RBack			LASI			RASI			LPSI			RPSI			RACR1			RUA1			RElbow			RElbowM			RFA1			RWRR			RWRU			RCAR			LACR1			LUA1			LElbow			LElbowM			LFA1			LWRR			LWRU			LCAR			RTH1			RTH3			RTH2			RTH4			RLFC			RMFC			RTB1			RTB3			RTB2			RTB4			RLMAL			RMMAL			RCAL			RMT1			RMT5			RToe			LTH1			LTH3			LTH2			LTH4			LLFC			LMFC			LTB1			LTB3			LTB2			LTB4			LLMAL			LMMAL			LCAL			LMT1			LMT5			LToe			
		X1	Y1	Z1	X2	Y2	Z2	X3	Y3	Z3	X4	Y4	Z4	X5	Y5	Z5	X6	Y6	Z6	X7	Y7	Z7	X8	Y8	Z8	X9	Y9	Z9	X10	Y10	Z10	X11	Y11	Z11	X12	Y12	Z12	X13	Y13	Z13	X14	Y14	Z14	X15	Y15	Z15	X16	Y16	Z16	X17	Y17	Z17	X18	Y18	Z18	X19	Y19	Z19	X20	Y20	Z20	X21	Y21	Z21	X22	Y22	Z22	X23	Y23	Z23	X24	Y24	Z24	X25	Y25	Z25	X26	Y26	Z26	X27	Y27	Z27	X28	Y28	Z28	X29	Y29	Z29	X30	Y30	Z30	X31	Y31	Z31	X32	Y32	Z32	X33	Y33	Z33	X34	Y34	Z34	X35	Y35	Z35	X36	Y36	Z36	X37	Y37	Z37	X38	Y38	Z38	X39	Y39	Z39	X40	Y40	Z40	X41	Y41	Z41	X42	Y42	Z42	X43	Y43	Z43	X44	Y44	Z44	X45	Y45	Z45	X46	Y46	Z46	X47	Y47	Z47	X48	Y48	Z48	X49	Y49	Z49	X50	Y50	Z50	X51	Y51	Z51	X52	Y52	Z52	X53	Y53	Z53	X54	Y54	Z54	X55	Y55	Z55	X56	Y56	Z56	X57	Y57	Z57	X58	Y58	Z58	X59	Y59	Z59	X60	Y60	Z60	X61	Y61	Z61	

1	0.000	-9.31679	-325.97867	1447.44055	86.09888	-342.23410	1434.83838	-50.02101	-455.32028	1380.76514	81.40723	-477.10373	1370.97034	13.10992	-511.17966	1277.33447	23.32844	-575.46490	1072.60315	12.75380	-362.96902	1207.63892	11.71839	-311.05319	1108.05286	123.34699	-552.08246	1149.77454	-155.48755	-374.71057	830.67169	164.21490	-342.77536	832.21234	-26.40203	-622.61346	863.06641	75.86664	-607.91864	854.22717	158.44374	-474.72879	1261.44922	283.00815	-462.84805	1225.04126	400.59735	-431.36841	1197.81213	392.26563	-367.45721	1146.78833	513.17010	-409.51291	1244.38477	603.36743	-358.04523	1263.27856	614.61951	-386.83243	1198.25647	678.31726	-351.51120	1231.33813	-141.49591	-474.12207	1263.96204	-277.16718	-437.93259	1231.07153	-380.53156	-393.08972	1190.61682	-360.12421	-342.08124	1153.26135	-477.11008	-387.44400	1229.13208	-576.36841	-335.11295	1246.55273	-585.19440	-354.66406	1187.12415	-645.50769	-326.01614	1213.74243	221.44853	-425.64081	652.15289	190.92317	-442.52573	481.89923	189.30653	-378.64777	565.54425	209.96043	-435.64987	566.37897	173.70473	-480.37473	399.03491	34.25344	-456.89417	386.38760	140.57953	-429.26355	294.62149	143.33200	-442.39886	123.69121	189.29652	-478.72681	212.72931	141.33333	-439.44379	208.13399	181.34560	-492.01053	62.77977	99.75683	-473.78833	63.04818	135.77574	-544.85779	31.56114	125.27938	-373.51456	26.12555	215.72493	-406.62708	25.15116	162.62665	-321.16138	28.94463	-214.93205	-449.29312	673.05096	-192.38802	-459.51001	501.17926	-185.56242	-399.15503	588.63568	-210.10822	-452.52713	587.56335	-173.63681	-446.04868	405.62024	-32.33366	-448.57916	398.25745	-128.57629	-424.86835	298.52905	-152.31091	-446.88736	130.12929	-193.88136	-466.45709	224.22945	-139.46094	-439.27258	212.15678	-188.72803	-502.92917	64.21628	-111.28758	-474.80673	65.36399	-145.51828	-541.28827	41.21533	-140.43396	-374.26666	31.98298	-224.14818	-420.33670	21.22765	-171.86368	-320.76056	26.30996 
2	0.005	-9.33176	-325.94495	1447.39075	86.08092	-342.25760	1434.79028	-50.16647	-455.16827	1380.78516	81.47808	-477.06223	1370.97449	13.11835	-511.15744	1277.34412	23.35275	-575.46472	1072.62476	12.81659	-363.01141	1207.59204	11.79231	-311.00232	1108.05103	123.33482	-552.05444	1149.75037	-155.49098	-374.59094	830.67181	164.19980	-342.76541	832.20416	-26.41268	-622.60724	863.07312	75.84444	-607.91412	854.25769	158.51915	-474.64658	1261.43994	282.96606	-462.80338	1225.00146	400.58276	-431.31781	1197.79822	392.23727	-367.45230	1146.80615	513.16132	-409.46304	1244.38452	603.37610	-357.98825	1263.24573	614.62140	-386.63321	1198.19116	678.31116	-351.48834	1231.37292	-141.48361	-474.09610	1263.98059	-277.14063	-437.90280	1231.05835	-380.51965	-392.94547	1190.74377	-360.01691	-342.00842	1153.04077	-477.18161	-387.44812	1229.22900	-576.39532	-335.12729	1246.52686	-585.17645	-354.66953	1187.10461	-645.53241	-325.99838	1213.72864	221.44920	-425.61649	652.13721	190.82384	-442.28214	481.85770	189.29196	-378.60284	565.54590	209.94997	-435.58224	566.39465	173.72603	-480.35648	399.03329	34.32695	-456.73520	386.35349	140.58885	-429.26785	294.60547	143.34380	-442.39471	123.69063	189.29099	-478.71948	212.74278	141.33336	-439.43674	208.12872	181.33260	-491.98523	62.81165	99.76614	-473.78604	63.03769	135.70763	-544.93640	31.62720	124.94287	-373.89929	26.60317	215.95496	-406.70157	25.17016	162.69405	-321.17868	28.96394	-214.93890	-449.31714	673.07159	-192.37544	-459.52365	501.16949	-185.53880	-399.16656	588.63531	-210.10840	-452.53650	587.59216	-173.64513	-446.07156	405.64865	-32.34513	-448.59790	398.23199	-128.56598	-424.89523	298.54944	-152.28769	-446.89468	130.14294	-193.87407	-466.49176	224.22826	-139.46861	-439.26614	212.14981	-188.70801	-502.93555	64.20008	-111.28490	-474.82224	65.38515	-145.53264	-541.26074	41.19646	-140.44402	-374.27707	31.99305	-224.29776	-420.35260	21.37458	-171.84050	-320.75296	26.29272 
3	0.010	-9.36824	-325.86298	1447.38037	86.11372	-342.23825	1434.79004	-50.23662	-455.05478	1380.78931	81.54181	-477.04562	1370.98547	13.12079	-511.12167	1277.35059	23.36832	-575.46033	1072.63013	12.83053	-362.96347	1207.57886	11.85032	-311.06927	1108.07629	123.32536	-552.02869	1149.73291	-155.48982	-374.46759	830.64569	164.18848	-342.76175	832.19611	-26.41396	-622.61023	863.08350	75.80074	-607.92212	854.29865	158.58070	-474.58813	1261.42676	282.91687	-462.77881	1224.95874	400.56204	-431.27856	1197.80103	392.23090	-367.44916	1146.82568	513.11572	-409.47293	1244.42834	603.38031	-357.93161	1263.20264	614.57050	-386.46579	1198.11853	678.35376	-351.47693	1231.44177	-141.47260	-474.06201	1263.98389	-277.13449	-437.89825	1231.10486	-380.48886	-392.92328	1190.62695	-359.98410	-341.92426	1153.03723	-477.27707	-387.42575	1229.31445	-576.42322	-335.16183	1246.50024	-585.15619	-354.70325	1187.08545	-645.53705	-325.98242	1213.69458	221.44475	-425.60431	652.13702	190.77945	-442.08896	481.81335	189.28749	-378.57559	565.54681	209.94536	-435.50583	566.41626	173.72801	-480.34424	399.05167	34.40136	-456.54626	386.31345	140.59892	-429.27954	294.59348	143.35704	-442.40948	123.69465	189.28859	-478.71091	212.76419	141.33562	-439.43149	208.12640	181.20297	-491.97803	62.90132	99.78092	-473.78513	63.03321	135.64215	-545.01440	31.69414	124.79379	-374.30850	26.76856	216.14311	-406.78629	25.16060	162.73108	-321.19553	28.94306	-214.95544	-449.34888	673.08759	-192.36525	-459.53452	501.15588	-185.51508	-399.18509	588.63257	-210.10402	-452.54462	587.62335	-173.66072	-446.08252	405.66800	-32.35251	-448.61639	398.22046	-128.56206	-424.92087	298.56052	-152.25903	-446.91235	130.17728	-193.87863	-466.50900	224.22525	-139.46977	-439.26080	212.15524	-188.68349	-502.93088	64.18089	-111.26579	-474.84216	65.40851	-145.56854	-541.21411	41.16646	-140.44833	-374.28986	32.00203	-224.42667	-420.36823	21.49151	-171.82249	-320.75125	26.26482 
4	0.015	-9.38198	-325.82538	1447.34583	86.17905	-342.19519	1434.81763	-50.22301	-455.03491	1380.77722	81.59473	-477.03989	1370.99597	13.12273	-511.08612	1277.35974	23.37772	-575.44922	1072.62891	12.79956	-362.81738	1207.58545	11.83667	-311.25958	1108.14160	123.30241	-551.99518	1149.70789	-155.47652	-374.35107	830.60046	164.17590	-342.76672	832.19489	-26.40802	-622.62024	863.09558	75.75399	-607.93292	854.34863	158.61989	-474.55389	1261.41748	282.86560	-462.77493	1224.92090	400.54291	-431.24957	1197.81470	392.24655	-367.44858	1146.83289	513.05060	-409.49149	1244.44861	603.37726	-357.89365	1263.16382	614.48242	-386.34836	1198.06189	678.46289	-351.46762	1231.50598	-141.45540	-474.03259	1263.97498	-277.14514	-437.90057	1231.16345	-380.43781	-392.99579	1190.33960	-360.03735	-341.83582	1153.25781	-477.34995	-387.40121	1229.37756	-576.43561	-335.19489	1246.48547	-585.14709	-354.73630	1187.07788	-645.52527	-325.98611	1213.66943	221.43571	-425.60562	652.15027	190.79416	-441.96671	481.77823	189.28175	-378.56229	565.56036	209.94208	-435.42621	566.44775	173.71635	-480.33829	399.08078	34.46709	-456.33115	386.27991	140.59576	-429.29315	294.58472	143.36894	-442.41760	123.69218	189.29297	-478.70731	212.77919	141.33911	-439.42816	208.12556	181.09261	-491.99109	62.97205	99.79920	-473.78537	63.03341	135.57339	-545.09045	31.77018	124.44128	-374.75870	27.21359	216.26563	-406.84592	25.14531	162.73943	-321.19867	28.91798	-214.96353	-449.38239	673.09424	-192.36078	-459.53806	501.14319	-185.49005	-399.20294	588.63507	-210.09909	-452.55707	587.61072	-173.67137	-446.08920	405.67355	-32.36338	-448.63058	398.20355	-128.56271	-424.94360	298.56836	-152.23135	-446.93408	130.22768	-193.88680	-466.52359	224.22977	-139.45799	-439.25708	212.16785	-188.66219	-502.91245	64.17988	-111.23223	-474.86139	65.42899	-145.61259	-541.17004	41.15301	-140.45149	-374.30048	32.01830	-224.42073	-420.36462	21.46498	-171.84952	-320.74530	26.23076 
5	0.020	-9.42124	-325.72461	1447.38184	86.26053	-342.14725	1434.86133	-50.19534	-455.04791	1380.77271	81.63937	-477.03397	1371.00635	13.12429	-511.05872	1277.36694	23.37786	-575.44031	1072.63013	12.79159	-362.70334	1207.59839	11.95658	-311.25345	1108.08997	123.29557	-551.96594	1149.70129	-155.44838	-374.24673	830.54462	164.16373	-342.77820	832.20258	-26.40147	-622.62610	863.10461	75.70274	-607.93610	854.38837	158.62756	-474.52798	1261.40857	282.81421	-462.75455	1224.95020	400.52979	-431.23303	1197.82971	392.26935	-367.44769	1146.82825	512.96838	-409.55249	1244.50623	603.36743	-357.85141	1263.13098	614.37024	-386.30188	1198.02954	678.61884	-351.45020	1231.55432	-141.43173	-474.01276	1263.97534	-277.16113	-437.90259	1231.22168	-380.37610	-393.12842	1189.99121	-360.08707	-341.72314	1153.45776	-477.40015	-387.38101	1229.43811	-576.44403	-335.20258	1246.50488	-585.14557	-354.77231	1187.06689	-645.49390	-325.98474	1213.63379	221.42670	-425.61563	652.16681	190.77951	-441.86444	481.77322	189.27600	-378.56448	565.57959	209.94131	-435.34485	566.48401	173.69177	-480.34015	399.11954	34.52493	-456.10321	386.24686	140.58640	-429.29785	294.57416	143.37093	-442.42059	123.69527	189.30284	-478.70560	212.78725	141.34225	-439.42719	208.12709	181.07346	-492.02567	62.95102	99.82875	-473.79028	63.04540	135.50847	-545.16699	31.84353	124.32279	-375.23611	27.35316	216.68800	-406.97687	25.17497	162.59453	-321.17456	28.89211	-214.96864	-449.41034	673.10791	-192.35628	-459.54300	501.13010	-185.47537	-399.21884	588.63824	-210.08589	-452.56866	587.60297	-173.68379	-446.10428	405.65665	-32.37055	-448.64124	398.18564	-128.58453	-424.95078	298.55875	-152.22052	-446.95593	130.25351	-193.89282	-466.51468	224.23460	-139.45114	-439.25351	212.17535	-188.63925	-502.89276	64.15841	-111.18999	-474.87436	65.44567	-145.64430	-541.12732	41.14082	-140.44295	-374.29062	32.01631	-224.49046	-420.36945	21.51661	-171.89697	-320.73535	26.22535 
